<?xml version="1.0" encoding="UTF-8"?>
<svg version="1.1" xmlns="http://www.w3.org/2000/svg" width="30" height="24">
<path d="M0 0 C9.9 0 19.8 0 30 0 C30 7.92 30 15.84 30 24 C20.1 24 10.2 24 0 24 C0 16.08 0 8.16 0 0 Z " fill="#E9EFF6" transform="translate(0,0)"/>
<path d="M0 0 C7.26 0 14.52 0 22 0 C22.33 0.99 22.66 1.98 23 3 C22.34 3.66 21.68 4.32 21 5 C21.515625 5.4125 22.03125 5.825 22.5625 6.25 C23.036875 6.8275 23.51125 7.405 24 8 C23.6875 10.1875 23.6875 10.1875 23 12 C21.68 12 20.36 12 19 12 C18.34 14.31 17.68 16.62 17 19 C15.68 18.67 14.36 18.34 13 18 C13.33 17.01 13.66 16.02 14 15 C10.37 15 6.74 15 3 15 C3 14.01 3 13.02 3 12 C2.34 11.67 1.68 11.34 1 11 C0.67 10.67 0.34 10.34 0 10 C0 6.7 0 3.4 0 0 Z " fill="#E7E8EE" transform="translate(1,0)"/>
<path d="M0 0 C0.90492187 0.02320313 1.80984375 0.04640625 2.7421875 0.0703125 C4.10730469 0.09738281 4.10730469 0.09738281 5.5 0.125 C6.19867188 0.14820313 6.89734375 0.17140625 7.6171875 0.1953125 C7.6171875 0.8553125 7.6171875 1.5153125 7.6171875 2.1953125 C5.3071875 2.5253125 2.9971875 2.8553125 0.6171875 3.1953125 C0.2871875 4.5153125 -0.0428125 5.8353125 -0.3828125 7.1953125 C0.6071875 7.1953125 1.5971875 7.1953125 2.6171875 7.1953125 C2.6171875 6.2053125 2.6171875 5.2153125 2.6171875 4.1953125 C6.2471875 4.1953125 9.8771875 4.1953125 13.6171875 4.1953125 C13.6171875 5.1853125 13.6171875 6.1753125 13.6171875 7.1953125 C12.2971875 7.1953125 10.9771875 7.1953125 9.6171875 7.1953125 C8.9571875 9.5053125 8.2971875 11.8153125 7.6171875 14.1953125 C6.2971875 13.8653125 4.9771875 13.5353125 3.6171875 13.1953125 C3.9471875 12.2053125 4.2771875 11.2153125 4.6171875 10.1953125 C1.3171875 10.1953125 -1.9828125 10.1953125 -5.3828125 10.1953125 C-4.43131996 0.36322295 -4.43131996 0.36322295 0 0 Z " fill="#7A9EE4" transform="translate(10.3828125,4.8046875)"/>
<path d="M0 0 C2.31 0 4.62 0 7 0 C7 7.92 7 15.84 7 24 C6.34 24 5.68 24 5 24 C4.67 20.04 4.34 16.08 4 12 C3.01 12.495 3.01 12.495 2 13 C1.67 10.69 1.34 8.38 1 6 C0.01 5.67 -0.98 5.34 -2 5 C-1.34 3.35 -0.68 1.7 0 0 Z " fill="#F4F5F8" transform="translate(23,0)"/>
<path d="M0 0 C2.97 0 5.94 0 9 0 C9.33 0.99 9.66 1.98 10 3 C9.34 3.66 8.68 4.32 8 5 C8.99 5.99 9.98 6.98 11 8 C10.67 8.99 10.34 9.98 10 11 C10 10.34 10 9.68 10 9 C6.37 9 2.74 9 -1 9 C-1 9.99 -1 10.98 -1 12 C-1.99 12 -2.98 12 -4 12 C-3.67 10.35 -3.34 8.7 -3 7 C-0.69 7 1.62 7 4 7 C4 6.34 4 5.68 4 5 C1.03 5 -1.94 5 -5 5 C-5 4.67 -5 4.34 -5 4 C-2.69 4 -0.38 4 2 4 C1.34 2.68 0.68 1.36 0 0 Z " fill="#EBEEF6" transform="translate(14,0)"/>
<path d="M0 0 C0.90492187 0.02320313 1.80984375 0.04640625 2.7421875 0.0703125 C4.10730469 0.09738281 4.10730469 0.09738281 5.5 0.125 C6.19867188 0.14820313 6.89734375 0.17140625 7.6171875 0.1953125 C7.6171875 0.8553125 7.6171875 1.5153125 7.6171875 2.1953125 C5.3071875 2.5253125 2.9971875 2.8553125 0.6171875 3.1953125 C-0.0428125 4.8453125 -0.7028125 6.4953125 -1.3828125 8.1953125 C0.5971875 8.1953125 2.5771875 8.1953125 4.6171875 8.1953125 C4.2871875 8.8553125 3.9571875 9.5153125 3.6171875 10.1953125 C0.6471875 10.1953125 -2.3228125 10.1953125 -5.3828125 10.1953125 C-4.43131996 0.36322295 -4.43131996 0.36322295 0 0 Z " fill="#2F3036" transform="translate(10.3828125,4.8046875)"/>
<path d="M0 0 C2.31 0 4.62 0 7 0 C7.66 1.32 8.32 2.64 9 4 C4.545 4.495 4.545 4.495 0 5 C0 3.33333333 0 1.66666667 0 0 Z " fill="#EDEEF5" transform="translate(7,0)"/>
<path d="M0 0 C6.93 0.495 6.93 0.495 14 1 C13.67 1.99 13.34 2.98 13 4 C13 3.34 13 2.68 13 2 C9.37 2 5.74 2 2 2 C2 2.99 2 3.98 2 5 C1.01 5 0.02 5 -1 5 C-0.67 3.35 -0.34 1.7 0 0 Z " fill="#C8D7E5" transform="translate(11,7)"/>
<path d="M0 0 C0.33 1.32 0.66 2.64 1 4 C2.98 4 4.96 4 7 4 C6.67 4.66 6.34 5.32 6 6 C3.03 6 0.06 6 -3 6 C-3 4.35 -3 2.7 -3 1 C-2.01 0.67 -1.02 0.34 0 0 Z " fill="#292828" transform="translate(8,9)"/>
<path d="M0 0 C3.3 0 6.6 0 10 0 C10 0.99 10 1.98 10 3 C2.25 3.125 2.25 3.125 0 2 C0 1.34 0 0.68 0 0 Z " fill="#6FA2E6" transform="translate(14,9)"/>
<path d="M0 0 C1.65 0 3.3 0 5 0 C4.67 1.65 4.34 3.3 4 5 C1.03 5 -1.94 5 -5 5 C-5 4.67 -5 4.34 -5 4 C-2.69 4 -0.38 4 2 4 C1.34 2.68 0.68 1.36 0 0 Z " fill="#E0E0E7" transform="translate(14,0)"/>
<path d="M0 0 C0.33 0.66 0.66 1.32 1 2 C1.99 2.33 2.98 2.66 4 3 C4 3.66 4 4.32 4 5 C1.36 4.67 -1.28 4.34 -4 4 C-3.67 3.01 -3.34 2.02 -3 1 C-3 1.66 -3 2.32 -3 3 C-2.01 3 -1.02 3 0 3 C0 2.01 0 1.02 0 0 Z " fill="#A2B0C8" transform="translate(13,9)"/>
</svg>
