<?xml version="1.0" encoding="UTF-8"?>
<svg version="1.1" xmlns="http://www.w3.org/2000/svg" width="463" height="94">
<path d="M0 0 C152.79 0 305.58 0 463 0 C463 31.02 463 62.04 463 94 C310.21 94 157.42 94 0 94 C0 62.98 0 31.96 0 0 Z " fill="#E0E3E9" transform="translate(0,0)"/>
<path d="M0 0 C0.9445253 0.00848969 1.8890506 0.01697937 2.86219788 0.02572632 C5.85854513 0.05912882 8.85213214 0.13438227 11.84765625 0.2109375 C13.88733073 0.24105415 15.9270477 0.26842697 17.96679688 0.29296875 C22.94896899 0.35887699 27.92909579 0.46230652 32.91015625 0.5859375 C31.57682292 4.5859375 30.24348958 8.5859375 28.91015625 12.5859375 C19.01015625 12.9159375 9.11015625 13.2459375 -1.08984375 13.5859375 C-3.72984375 20.8459375 -6.36984375 28.1059375 -9.08984375 35.5859375 C0.48015625 35.5859375 10.05015625 35.5859375 19.91015625 35.5859375 C16.91015625 45.5859375 16.91015625 45.5859375 15.91015625 46.5859375 C12.83103966 46.69954043 9.77520159 46.75012855 6.6953125 46.75390625 C5.76923691 46.75723465 4.84316132 46.76056305 3.88902283 46.76399231 C1.92610167 46.76906558 -0.03682815 46.77140051 -1.99975586 46.77124023 C-5.01104886 46.77342567 -8.02197509 46.79157424 -11.03320312 46.81054688 C-12.93619666 46.81348086 -14.83919194 46.81546562 -16.7421875 46.81640625 C-17.64742661 46.82359177 -18.55266571 46.83077728 -19.4853363 46.83818054 C-20.32282913 46.83510391 -21.16032196 46.83202728 -22.02319336 46.82885742 C-23.13119545 46.83099495 -23.13119545 46.83099495 -24.26158142 46.83317566 C-26.08984375 46.5859375 -26.08984375 46.5859375 -28.08984375 44.5859375 C-28.69323028 37.22575501 -26.19466626 30.95191325 -23.7746582 24.14282227 C-23.03072384 22.03302343 -22.32251174 19.9133394 -21.61523438 17.79101562 C-21.13885808 16.4289374 -20.6604089 15.06758202 -20.1796875 13.70703125 C-19.75550537 12.4842749 -19.33132324 11.26151855 -18.89428711 10.00170898 C-14.42779851 1.54674457 -9.23298317 -0.31613292 0 0 Z " fill="#29292A" transform="translate(118.08984375,18.4140625)"/>
<path d="M0 0 C16.5 0 33 0 50 0 C48.43297876 4.70106371 46.84037311 9.39906723 45 14 C40.05 14 35.1 14 30 14 C29.59007812 15.4128125 29.18015625 16.825625 28.7578125 18.28125 C27.01099928 24.1025923 24.97309206 29.79749337 22.875 35.5 C22.51535156 36.48742187 22.15570313 37.47484375 21.78515625 38.4921875 C19.14580676 45.70838648 19.14580676 45.70838648 18 48 C12.39 48 6.78 48 1 48 C1.83682565 42.97904609 2.87917381 39.48561587 4.8125 34.875 C7.51337472 28.33471042 9.83606937 21.74147621 12 15 C6.72 14.67 1.44 14.34 -4 14 C-2.84264774 9.20525491 -1.56719 4.70157001 0 0 Z " fill="#66A3FA" transform="translate(131,36)"/>
<path d="M0 0 C3.5578125 -0.0928125 3.5578125 -0.0928125 7.1875 -0.1875 C8.29387817 -0.22846802 8.29387817 -0.22846802 9.42260742 -0.27026367 C13.84236338 -0.32577175 16.46742902 0.35888761 20 3 C21 4 21 4 21.3125 7.75 C21.28978344 11.96013667 20.00752661 13.99247339 17 17 C18.32 19.64 19.64 22.28 21 25 C17.75 25.375 17.75 25.375 14 25 C10 20.28205128 10 20.28205128 10 17 C8.68 17 7.36 17 6 17 C6 19.64 6 22.28 6 25 C4.02 25 2.04 25 0 25 C0 16.75 0 8.5 0 0 Z " fill="#2A2B2C" transform="translate(243,39)"/>
<path d="M0 0 C2.64 0 5.28 0 8 0 C11.4498235 8.19092172 14.25262948 16.55521358 17 25 C15.02 25 13.04 25 11 25 C10.67 23.68 10.34 22.36 10 21 C8.20741442 21.08693141 6.41584856 21.19510504 4.625 21.3125 C3.62726563 21.37050781 2.62953125 21.42851563 1.6015625 21.48828125 C0.74304688 21.65714844 -0.11546875 21.82601562 -1 22 C-1.66 22.99 -2.32 23.98 -3 25 C-5.625 25.1875 -5.625 25.1875 -8 25 C-7.43375164 19.05837993 -5.6793942 14.07178852 -3.4375 8.5625 C-3.10814453 7.73556641 -2.77878906 6.90863281 -2.43945312 6.05664062 C-1.63314164 4.03501907 -0.81751877 2.01711551 0 0 Z " fill="#28292A" transform="translate(223,39)"/>
<path d="M0 0 C2.35260818 2.06744355 3.69351491 4.00247797 5.0625 6.8125 C5.0625 7.4725 5.0625 8.1325 5.0625 8.8125 C1.8125 9.0625 1.8125 9.0625 -1.9375 8.8125 C-3.27083333 7.47916667 -4.60416667 6.14583333 -5.9375 4.8125 C-9.6360004 4.96044002 -11.29555573 5.17055573 -13.9375 7.8125 C-14.4015446 12.47478885 -14.4015446 12.47478885 -12.8125 16.75 C-10.01587528 18.33475401 -8.0881804 18.27197423 -4.9375 17.8125 C-4.463125 17.1525 -3.98875 16.4925 -3.5 15.8125 C-2.984375 15.1525 -2.46875 14.4925 -1.9375 13.8125 C1.75 13.5625 1.75 13.5625 5.0625 13.8125 C4.48524324 17.70898316 2.74374732 19.9822945 0.0625 22.8125 C-3.90283466 25.06309535 -7.43403782 25.28654865 -11.9375 24.8125 C-16.27432792 22.5606855 -19.10677416 20.38931459 -20.9375 15.8125 C-21.50177676 11.5098897 -21.41512697 7.96886004 -19.75 3.9375 C-14.55559532 -2.15249169 -7.29189957 -2.94778919 0 0 Z " fill="#292A2B" transform="translate(207.9375,40.1875)"/>
<path d="M0 0 C13 0 13 0 18 4 C18.71525283 8.37098953 18.50639423 10.25623347 16 13.9375 C15.34 14.618125 14.68 15.29875 14 16 C14.66 17.11375 15.32 18.2275 16 19.375 C18 22.75 18 22.75 18 25 C16.68 25 15.36 25 14 25 C13.78085937 24.43410156 13.56171875 23.86820313 13.3359375 23.28515625 C12.36066957 21.02935359 11.40765852 19.01764387 10 17 C6.87866256 15.86521065 6.87866256 15.86521065 4 16 C4 18.97 4 21.94 4 25 C2.68 25.33 1.36 25.66 0 26 C0 17.42 0 8.84 0 0 Z " fill="#7BAAEF" transform="translate(293,39)"/>
<path d="M0 0 C1.91503906 0.15087891 1.91503906 0.15087891 4 1 C5.28027344 2.99365234 5.28027344 2.99365234 6.359375 5.5859375 C6.75253906 6.51664063 7.14570313 7.44734375 7.55078125 8.40625 C7.94652344 9.3859375 8.34226562 10.365625 8.75 11.375 C9.16121094 12.34695312 9.57242187 13.31890625 9.99609375 14.3203125 C13 21.54565511 13 21.54565511 13 25 C12.01 25 11.02 25 10 25 C9.34 23.02 8.68 21.04 8 19 C6.06177404 19.03305502 4.12414332 19.10249905 2.1875 19.1875 C1.10855469 19.22230469 0.02960938 19.25710937 -1.08203125 19.29296875 C-4.2163444 19.7222154 -4.2163444 19.7222154 -5.88671875 22.55078125 C-6.25410156 23.35902344 -6.62148438 24.16726562 -7 25 C-7.99 24.67 -8.98 24.34 -10 24 C-8.5250853 20.18584126 -7.04436147 16.37396462 -5.5625 12.5625 C-5.14162109 11.47388672 -4.72074219 10.38527344 -4.28710938 9.26367188 C-3.88427734 8.22919922 -3.48144531 7.19472656 -3.06640625 6.12890625 C-2.5086853 4.69140015 -2.5086853 4.69140015 -1.93969727 3.22485352 C-1 1 -1 1 0 0 Z " fill="#6BA3F3" transform="translate(324,39)"/>
<path d="M0 0 C13.88888889 0 13.88888889 0 19 4 C21.75611793 8.39110315 21.78465761 12.97502094 21 18 C18.91008755 22.07990877 16.09403637 23.95298181 12 26 C8.04 26 4.08 26 0 26 C0 17.42 0 8.84 0 0 Z M3 3 C3 9.27 3 15.54 3 22 C11.40371521 22.67082039 11.40371521 22.67082039 16 20 C18.54575791 16.56322682 18.43672876 13.14892325 18 9 C16.20437595 6.24670979 14.94745078 4.47372539 12 3 C9.03 3 6.06 3 3 3 Z " fill="#64A0F4" transform="translate(342,39)"/>
<path d="M0 0 C4.62 0 9.24 0 14 0 C14 0.99 14 1.98 14 3 C10.37 3 6.74 3 3 3 C3 5.64 3 8.28 3 11 C6.3 11 9.6 11 13 11 C13 11.99 13 12.98 13 14 C9.7 14 6.4 14 3 14 C3 16.97 3 19.94 3 23 C6.63 23 10.26 23 14 23 C14 23.66 14 24.32 14 25 C9.38 25 4.76 25 0 25 C0 16.75 0 8.5 0 0 Z " fill="#649FF4" transform="translate(369,39)"/>
<path d="M0 0 C2.8125 0.9375 2.8125 0.9375 4.8125 3.9375 C4.8125 4.9275 4.8125 5.9175 4.8125 6.9375 C4.1525 6.9375 3.4925 6.9375 2.8125 6.9375 C2.4825 9.5775 2.1525 12.2175 1.8125 14.9375 C-1.68394963 15.25535906 -3.584902 15.33394605 -6.5625 13.375 C-8.82663895 9.97879157 -8.83019755 7.93650698 -8.1875 3.9375 C-5.48662115 0.75999547 -4.19525403 -0.08225988 0 0 Z " fill="#E5E8EC" transform="translate(201.1875,44.0625)"/>
<path d="M0 0 C6.27 0 12.54 0 19 0 C19 0.99 19 1.98 19 3 C16.36 3 13.72 3 11 3 C11 10.26 11 17.52 11 25 C10.01 25 9.02 25 8 25 C8 17.74 8 10.48 8 3 C5.36 3 2.72 3 0 3 C0 2.01 0 1.02 0 0 Z " fill="#68A1F3" transform="translate(270,39)"/>
<path d="M0 0 C1.43861294 0.08746284 2.87597508 0.19565348 4.3125 0.3125 C5.11300781 0.37050781 5.91351563 0.42851563 6.73828125 0.48828125 C9.41109031 1.09301007 10.38866591 1.80462248 12 4 C12 4.99 12 5.98 12 7 C10.35 7 8.7 7 7 7 C6.34 8.65 5.68 10.3 5 12 C2.36 12 -0.28 12 -3 12 C-3 9.69 -3 7.38 -3 5 C-1.68 4.67 -0.36 4.34 1 4 C0.67 2.68 0.34 1.36 0 0 Z " fill="#353637" transform="translate(252,39)"/>
<path d="M0 0 C2.31 0 4.62 0 7 0 C5.35 5.28 3.7 10.56 2 16 C1.01 15.67 0.02 15.34 -1 15 C-2.89819464 11.05759576 -1.51718166 9.55154499 0 5 C-13.86 4.505 -13.86 4.505 -28 4 C-27.67 3.01 -27.34 2.02 -27 1 C-27 1.66 -27 2.32 -27 3 C-17.43 3 -7.86 3 2 3 C1.34 2.67 0.68 2.34 0 2 C0 1.34 0 0.68 0 0 Z " fill="#D2D7DB" transform="translate(137,50)"/>
<path d="M0 0 C4.875 1.75 4.875 1.75 6 4 C6.51093875 8.05831354 6.91678528 12.19576657 5.0234375 15.921875 C2.72390982 18.77159642 0.39074445 20.69862273 -3 22 C-6.015625 22.1953125 -6.015625 22.1953125 -9.25 22.125 C-10.32765625 22.10695313 -11.4053125 22.08890625 -12.515625 22.0703125 C-13.33546875 22.04710938 -14.1553125 22.02390625 -15 22 C-15 21.67 -15 21.34 -15 21 C-11.37 20.67 -7.74 20.34 -4 20 C-6.64 19.67 -9.28 19.34 -12 19 C-12 18.67 -12 18.34 -12 18 C-11.15695312 17.90203125 -10.31390625 17.8040625 -9.4453125 17.703125 C-8.34960938 17.55359375 -7.25390625 17.4040625 -6.125 17.25 C-5.03445313 17.11078125 -3.94390625 16.9715625 -2.8203125 16.828125 C0.07976003 16.2864583 0.07976003 16.2864583 1.3671875 14.13671875 C2.86181168 9.09005563 2.26744028 4.67659558 0 0 Z " fill="#6AA1F3" transform="translate(357,43)"/>
<path d="M0 0 C0.66 0 1.32 0 2 0 C3.6640971 5.25504346 3.6640971 5.25504346 4 8 C2.6875 10.4375 2.6875 10.4375 1 12 C0.67 12.33 0.34 12.66 0 13 C-2.67058851 13.14115161 -5.32432238 13.04247107 -8 13 C-7.01 9.7 -6.02 6.4 -5 3 C-3.35 3 -1.7 3 0 3 C0 2.01 0 1.02 0 0 Z " fill="#363739" transform="translate(231,43)"/>
<path d="M0 0 C1.258125 -0.04125 2.51625 -0.0825 3.8125 -0.125 C4.52019531 -0.14820313 5.22789062 -0.17140625 5.95703125 -0.1953125 C8 0 8 0 11 2 C11.3125 4.5 11.3125 4.5 11 7 C9 9 9 9 6.8359375 9.1953125 C4.55729167 9.13020833 2.27864583 9.06510417 0 9 C0 6.03 0 3.06 0 0 Z " fill="#EEF1F9" transform="translate(297,42)"/>
<path d="M0 0 C2.31 0 4.62 0 7 0 C6.42274324 3.89648316 4.68124732 6.1697945 2 9 C-1.97206757 11.25441673 -5.49677268 11.17659715 -10 11 C-10 10.34 -10 9.68 -10 9 C-8.68 9 -7.36 9 -6 9 C-5.67 8.01 -5.34 7.02 -5 6 C-3.68733482 4.64631404 -2.35432675 3.31200404 -1 2 C-0.67 1.34 -0.34 0.68 0 0 Z " fill="#2D2E2E" transform="translate(206,54)"/>
<path d="M0 0 C2.64 0 5.28 0 8 0 C8 7.26 8 14.52 8 22 C8.99 22 9.98 22 11 22 C11 14.74 11 7.48 11 0 C11.33 0 11.66 0 12 0 C12 7.59 12 15.18 12 23 C10.35 23.33 8.7 23.66 7 24 C5 22 5 22 4.8125 19 C5 16 5 16 6 14 C6.14856188 9.46886254 6.10529324 5.42117296 5 1 C3.35 1 1.7 1 0 1 C0 0.67 0 0.34 0 0 Z " fill="#DAE7F9" transform="translate(270,42)"/>
<path d="M0 0 C0.33 0 0.66 0 1 0 C1 2.97 1 5.94 1 9 C3.64 9 6.28 9 9 9 C10.00508801 10.78881736 11.00392736 12.58114696 12 14.375 C12.8353125 15.87160156 12.8353125 15.87160156 13.6875 17.3984375 C15 20 15 20 15 22 C13.68 22 12.36 22 11 22 C10.78085937 21.43410156 10.56171875 20.86820313 10.3359375 20.28515625 C9.36066957 18.02935359 8.40765852 16.01764387 7 14 C3.87866256 12.86521065 3.87866256 12.86521065 1 13 C1 15.97 1 18.94 1 22 C0.67 22 0.34 22 0 22 C0 18.7 0 15.4 0 12 C0.99 11.67 1.98 11.34 3 11 C2.01 10.67 1.02 10.34 0 10 C0 6.7 0 3.4 0 0 Z " fill="#88B7F2" transform="translate(296,42)"/>
<path d="M0 0 C1.32 0.33 2.64 0.66 4 1 C3.67 2.32 3.34 3.64 3 5 C3.66 5 4.32 5 5 5 C5 6.98 5 8.96 5 11 C4.67 11 4.34 11 4 11 C3.67 12.98 3.34 14.96 3 17 C2.67 17 2.34 17 2 17 C1.67 19.31 1.34 21.62 1 24 C1.99 24 2.98 24 4 24 C4 21.69 4 19.38 4 17 C4.33 17 4.66 17 5 17 C5 19.64 5 22.28 5 25 C3.35 25 1.7 25 0 25 C0 16.75 0 8.5 0 0 Z " fill="#202223" transform="translate(243,39)"/>
<path d="M0 0 C0.99 0 1.98 0 3 0 C2.67 3.96 2.34 7.92 2 12 C3.98 12 5.96 12 8 12 C5 14 5 14 2 14 C2 17.3 2 20.6 2 24 C1.34 24 0.68 24 0 24 C0 16.08 0 8.16 0 0 Z " fill="#5C9CF9" transform="translate(294,40)"/>
<path d="M0 0 C0.66 0 1.32 0 2 0 C2 0.66 2 1.32 2 2 C5.96 2 9.92 2 14 2 C14.33 2.66 14.66 3.32 15 4 C14.09636719 4.01417969 13.19273437 4.02835938 12.26171875 4.04296875 C10.49248047 4.11451172 10.49248047 4.11451172 8.6875 4.1875 C7.51574219 4.22230469 6.34398437 4.25710937 5.13671875 4.29296875 C1.80318285 4.68863053 1.80318285 4.68863053 0.08203125 7.55078125 C-0.27503906 8.35902344 -0.63210938 9.16726562 -1 10 C-1.99 9.67 -2.98 9.34 -4 9 C-2.68 6.03 -1.36 3.06 0 0 Z " fill="#5FA0F6" transform="translate(318,54)"/>
<path d="M0 0 C2 1 2 1 2.8515625 3.28515625 C3.10679687 4.20167969 3.36203125 5.11820313 3.625 6.0625 C3.88539063 6.98160156 4.14578125 7.90070312 4.4140625 8.84765625 C4.60742188 9.55792969 4.80078125 10.26820312 5 11 C2.36 11 -0.28 11 -3 11 C-2.53199289 6.94393835 -2.12046792 3.53411321 0 0 Z " fill="#E2EEF6" transform="translate(325,44)"/>
<path d="M0 0 C3.96 0 7.92 0 12 0 C12.33 1.32 12.66 2.64 13 4 C8 4 3 4 -2 4 C-1.34 2.68 -0.68 1.36 0 0 Z " fill="#DDE8F7" transform="translate(320,58)"/>
<path d="M0 0 C2.64 0 5.28 0 8 0 C8.38218767 1.65614657 8.71395102 3.32457024 9 5 C8 6 8 6 6.15234375 6.09765625 C4.1015625 6.06510417 2.05078125 6.03255208 0 6 C0 4.02 0 2.04 0 0 Z " fill="#E4E5E6" transform="translate(249,45)"/>
<path d="M0 0 C2.97 0 5.94 0 9 0 C7.02 0.99 7.02 0.99 5 2 C4.34 2.66 3.68 3.32 3 4 C3.66 4.66 4.32 5.32 5 6 C4.67 6.99 4.34 7.98 4 9 C3.65179959 10.66362417 3.31595508 12.32995171 3 14 C2.67 14 2.34 14 2 14 C1.67 15.65 1.34 17.3 1 19 C0.67 19 0.34 19 0 19 C0 12.73 0 6.46 0 0 Z " fill="#E0EBF5" transform="translate(345,42)"/>
<path d="M0 0 C1.258125 -0.04125 2.51625 -0.0825 3.8125 -0.125 C4.52019531 -0.14820313 5.22789062 -0.17140625 5.95703125 -0.1953125 C8 0 8 0 11 2 C11.375 4.5 11.375 4.5 11 7 C10.01 7.66 9.02 8.32 8 9 C7.67 8.01 7.34 7.02 7 6 C7.33 5.34 7.66 4.68 8 4 C7.34 4 6.68 4 6 4 C6 3.34 6 2.68 6 2 C4.35 2.33 2.7 2.66 1 3 C0.67 2.01 0.34 1.02 0 0 Z " fill="#E4ECF3" transform="translate(297,42)"/>
<path d="M0 0 C0.495 0.144375 0.99 0.28875 1.5 0.4375 C4.97752922 1.21994407 8.45955123 1.58694764 12 2 C11.360625 2.28875 10.72125 2.5775 10.0625 2.875 C7.84793921 3.82823451 7.84793921 3.82823451 7 6 C3.9375 6.625 3.9375 6.625 1 7 C0.01 5.35 -0.98 3.7 -2 2 C-1.34 2 -0.68 2 0 2 C0 1.34 0 0.68 0 0 Z " fill="#252627" transform="translate(193,57)"/>
<path d="M0 0 C0.33 0.66 0.66 1.32 1 2 C1.66 2.33 2.32 2.66 3 3 C2.34 5.31 1.68 7.62 1 10 C5.455 9.505 5.455 9.505 10 9 C10 9.66 10 10.32 10 11 C6.37 11 2.74 11 -1 11 C-1 10.34 -1 9.68 -1 9 C-1.66 9 -2.32 9 -3 9 C-2.01 6.03 -1.02 3.06 0 0 Z " fill="#7FADF1" transform="translate(321,45)"/>
<path d="M0 0 C2.97 0.495 2.97 0.495 6 1 C6 2.65 6 4.3 6 6 C3.69 6.66 1.38 7.32 -1 8 C-1 5.16032769 -0.59732819 2.76264289 0 0 Z " fill="#262729" transform="translate(258,45)"/>
<path d="M0 0 C2.33294775 -0.04241723 4.66702567 -0.04092937 7 0 C7.33 0.33 7.66 0.66 8 1 C9.66617115 1.04063832 11.33388095 1.042721 13 1 C13 1.66 13 2.32 13 3 C8.375 5.125 8.375 5.125 5 4 C4.67 4.99 4.34 5.98 4 7 C4 6.34 4 5.68 4 5 C2.68 4.67 1.36 4.34 0 4 C1.32 3.34 2.64 2.68 4 2 C2.68 1.34 1.36 0.68 0 0 Z " fill="#333436" transform="translate(249,51)"/>
<path d="M0 0 C0.99 0 1.98 0 3 0 C3.99 1.98 4.98 3.96 6 6 C5.01 6.99 4.02 7.98 3 9 C2.01 8.67 1.02 8.34 0 8 C0 5.36 0 2.72 0 0 Z " fill="#E7E8EB" transform="translate(250,56)"/>
<path d="M0 0 C0.66 0.66 1.32 1.32 2 2 C2.66 1.67 3.32 1.34 4 1 C3.34 4.3 2.68 7.6 2 11 C1.01 10.67 0.02 10.34 -1 10 C-2.37407134 7.14615953 -1.95284958 5.8365452 -1.0625 2.75 C-0.711875 1.8425 -0.36125 0.935 0 0 Z " fill="#D7DDE7" transform="translate(137,55)"/>
<path d="M0 0 C0.66 0 1.32 0 2 0 C2.66 2.97 3.32 5.94 4 9 C2.02 9 0.04 9 -2 9 C-1.34 6.03 -0.68 3.06 0 0 Z " fill="#D5D6D8" transform="translate(226,46)"/>
<path d="M0 0 C0 0.66 0 1.32 0 2 C-3.4766338 4.14336161 -6.21229195 4.21277626 -10.25 4.125 C-11.32765625 4.10695313 -12.4053125 4.08890625 -13.515625 4.0703125 C-14.33546875 4.04710938 -15.1553125 4.02390625 -16 4 C-16 3.67 -16 3.34 -16 3 C-10.555 2.505 -10.555 2.505 -5 2 C-7.64 1.67 -10.28 1.34 -13 1 C-13 0.67 -13 0.34 -13 0 C-11.58456585 -0.19658808 -10.16755969 -0.38187546 -8.75 -0.5625 C-7.96109375 -0.66691406 -7.1721875 -0.77132812 -6.359375 -0.87890625 C-3.99467126 -1.00027349 -2.2488963 -0.69633257 0 0 Z " fill="#92BBF2" transform="translate(358,61)"/>
<path d="M0 0 C0.33 0 0.66 0 1 0 C1.49230769 6.4 1.49230769 6.4 -1 9.4375 C-1.99 10.2109375 -1.99 10.2109375 -3 11 C-3.66 10.67 -4.32 10.34 -5 10 C-4.71125 9.443125 -4.4225 8.88625 -4.125 8.3125 C-2.94687457 5.9654682 -2.94687457 5.9654682 -1.9375 3.3125 C-1 1 -1 1 0 0 Z " fill="#6DA2F6" transform="translate(310,43)"/>
<path d="M0 0 C0.33 0.66 0.66 1.32 1 2 C1.99 1.67 2.98 1.34 4 1 C3.01 3.97 2.02 6.94 1 10 C-0.32 10 -1.64 10 -3 10 C-2.01 6.7 -1.02 3.4 0 0 Z " fill="#353638" transform="translate(218,52)"/>
<path d="M0 0 C2.31 0 4.62 0 7 0 C6.42655063 2.86724686 6.1385485 3.8614515 4 6 C3.67 5.01 3.34 4.02 3 3 C2.01 3.33 1.02 3.66 0 4 C-0.33 3.34 -0.66 2.68 -1 2 C-0.67 1.34 -0.34 0.68 0 0 Z " fill="#424345" transform="translate(206,54)"/>
<path d="M0 0 C4.42857143 5.14285714 4.42857143 5.14285714 5 9 C3.68 9 2.36 9 1 9 C-0.61949011 6.42786866 -1.04408751 5.32330841 -0.625 2.25 C-0.41875 1.5075 -0.2125 0.765 0 0 Z " fill="#72A6F3" transform="translate(306,55)"/>
<path d="M0 0 C1.32 0.33 2.64 0.66 4 1 C3.01 1 2.02 1 1 1 C1.825 1.45375 2.65 1.9075 3.5 2.375 C4.325 2.91125 5.15 3.4475 6 4 C6 4.66 6 5.32 6 6 C4.02 6 2.04 6 0 6 C0 4.02 0 2.04 0 0 Z " fill="#F1F2F4" transform="translate(249,45)"/>
<path d="M0 0 C0.33 0 0.66 0 1 0 C1.22245393 1.60226955 1.42746669 3.20696767 1.625 4.8125 C1.74101562 5.70582031 1.85703125 6.59914063 1.9765625 7.51953125 C2 10 2 10 0 13 C-0.99 12.67 -1.98 12.34 -3 12 C-2.34 11.01 -1.68 10.02 -1 9 C-0.54605448 6.72087062 -0.54605448 6.72087062 -0.375 4.3125 C-0.30023438 3.50425781 -0.22546875 2.69601563 -0.1484375 1.86328125 C-0.09945313 1.24839844 -0.05046875 0.63351563 0 0 Z " fill="#DCEAF3" transform="translate(363,48)"/>
<path d="M0 0 C1.37562854 1.28965176 2.70766393 2.62689293 4 4 C4 4.66 4 5.32 4 6 C2.35 6 0.7 6 -1 6 C-1.33 5.01 -1.66 4.02 -2 3 C-1.34 3 -0.68 3 0 3 C0 2.01 0 1.02 0 0 Z " fill="#2B2C2D" transform="translate(259,57)"/>
<path d="M0 0 C0.33 0.99 0.66 1.98 1 3 C3.31 3 5.62 3 8 3 C7.34 3.66 6.68 4.32 6 5 C2.875 4.625 2.875 4.625 0 4 C-0.33 4.66 -0.66 5.32 -1 6 C-1.33 5.01 -1.66 4.02 -2 3 C-1.34 2.01 -0.68 1.02 0 0 Z " fill="#F4F5F9" transform="translate(213,62)"/>
<path d="M0 0 C0.33 0 0.66 0 1 0 C1 2.97 1 5.94 1 9 C-0.32 9.33 -1.64 9.66 -3 10 C-3.33 9.34 -3.66 8.68 -4 8 C-3.525625 7.608125 -3.05125 7.21625 -2.5625 6.8125 C-0.64820367 4.59191626 -0.38733012 2.86624291 0 0 Z " fill="#DBE7F6" transform="translate(311,45)"/>
<path d="M0 0 C1.60080151 4.00200378 0.29279692 7.04556236 -1 11 C-1.66 11 -2.32 11 -3 11 C-2.32829194 7.1936543 -1.27253436 3.64793184 0 0 Z " fill="#393B3B" transform="translate(222,41)"/>
<path d="M0 0 C0.33 0.66 0.66 1.32 1 2 C1.66 2 2.32 2 3 2 C2.34 3.65 1.68 5.3 1 7 C0.01 6.67 -0.98 6.34 -2 6 C-1.34 4.02 -0.68 2.04 0 0 Z " fill="#6CA3F1" transform="translate(316,57)"/>
<path d="M0 0 C2.97 0.33 5.94 0.66 9 1 C9 1.33 9 1.66 9 2 C6.69 2 4.38 2 2 2 C1.34 3.32 0.68 4.64 0 6 C-1.125 2.25 -1.125 2.25 0 0 Z " fill="#F3F5F8" transform="translate(204,52)"/>
<path d="M0 0 C1.32 0.33 2.64 0.66 4 1 C4 1.99 4 2.98 4 4 C2.02 4 0.04 4 -2 4 C-1.34 3.67 -0.68 3.34 0 3 C0 2.01 0 1.02 0 0 Z " fill="#EFF0F2" transform="translate(226,51)"/>
</svg>
